<?xml version="1.0" standalone="no"?>
<!DOCTYPE svg PUBLIC "-//W3C//DTD SVG 20010904//EN" "http://www.w3.org/TR/2001/REC-SVG-20010904/DTD/svg10.dtd">
<svg xmlns="http://www.w3.org/2000/svg" version="1.0" width="1024.000000pt" height="1024.000000pt" viewBox="0 0 1024.000000 1024.000000" preserveAspectRatio="xMidYMid meet">
<metadata>
Created by potrace 1.16, written by Peter Selinger 2001-2019
<meta name="Producer" content="Online-Convert"/></metadata>
<g transform="translate(0.000000,1024.000000) scale(0.100000,-0.100000)" fill="#000000" stroke="none">
<path d="M1553 6443 c-50 -28 -523 -501 -539 -539 -21 -49 -21 -1918 0 -1967 17 -42 66 -83 114 -97 26 -8 339 -10 1013 -8 l975 3 38 25 c22 15 47 45 61 75 l25 51 -2 1174 c-3 1314 3 1208 -75 1267 l-36 28 -771 3 c-721 2 -773 1 -803 -15z m559 -476 c25 -39 77 -120 115 -179 l69 -108 115 180 114 180 88 0 87 0 0 -387 0 -388 -82 0 -83 0 -5 228 -5 229 -94 -149 c-52 -81 -105 -163 -117 -181 l-21 -33 -86 138 c-48 76 -100 158 -117 183 l-30 45 -2 -229 -3 -228 -85 0 -85 0 -3 386 -2 386 92 0 93 0 47 -73z m629 -900 c57 -38 76 -106 45 -165 -16 -29 -664 -678 -706 -705 -27 -18 -101 -23 -129 -8 -17 10 -323 333 -420 445 -45 52 -51 65 -51 103 0 80 48 133 120 133 44 0 76 -22 143 -99 32 -36 104 -114 160 -174 l102 -108 285 281 c157 154 299 290 315 300 40 27 94 25 136 -3z"/>
<path d="M3880 5105 l0 -685 135 0 135 0 0 442 c0 277 4 438 9 432 9 -8 81 -133 333 -571 l70 -123 120 208 c67 114 156 267 199 341 44 73 79 137 79 142 0 5 3 9 8 9 4 0 7 -197 7 -438 l0 -437 138 -3 137 -3 0 686 0 685 -142 0 -143 0 -200 -354 c-110 -195 -203 -351 -206 -348 -6 6 -265 473 -363 655 l-26 47 -145 0 -145 0 0 -685z"/>
<path d="M7273 5553 c4 -131 7 -439 7 -685 l0 -448 131 0 130 0 -2 225 c-2 123 -1 226 2 229 2 2 85 -99 184 -225 l180 -229 148 0 c81 0 147 3 147 6 0 6 -106 146 -288 377 l-124 158 48 57 c54 63 260 303 312 364 l34 38 -159 0 -158 0 -55 -67 c-30 -37 -103 -127 -162 -200 l-108 -134 0 386 0 385 -137 0 -136 0 6 -237z"/>
<path d="M5710 5424 c-71 -19 -142 -65 -180 -117 -31 -43 -70 -150 -70 -193 0 -24 0 -24 119 -24 l119 0 5 28 c14 69 81 112 175 112 102 0 162 -61 162 -166 l0 -51 -187 -5 c-158 -5 -197 -9 -243 -27 -104 -39 -168 -128 -178 -246 -9 -114 34 -207 123 -271 60 -42 129 -59 242 -57 107 2 172 28 220 88 15 19 30 35 33 35 3 0 3 -25 2 -55 l-4 -55 127 0 126 0 -3 378 c-3 363 -4 379 -26 433 -39 97 -125 166 -242 193 -82 20 -247 19 -320 0z m330 -597 c0 -41 -27 -117 -55 -154 -67 -86 -215 -98 -269 -21 -23 32 -20 100 5 132 40 50 84 63 227 65 90 1 92 1 92 -22z"/>
<path d="M8509 5417 c-117 -40 -183 -109 -219 -225 -33 -107 -38 -102 99 -102 l119 0 5 28 c14 69 81 112 174 112 104 0 153 -48 156 -152 l2 -63 -180 -6 c-199 -7 -238 -14 -307 -58 -84 -54 -125 -147 -116 -265 9 -109 66 -199 156 -245 88 -45 249 -50 339 -11 22 10 60 37 82 60 l41 42 0 -56 0 -56 120 0 120 0 0 368 c0 404 -3 432 -59 509 -69 95 -164 134 -341 140 -111 3 -132 1 -191 -20z m341 -589 c0 -41 -22 -102 -51 -144 -66 -96 -216 -113 -273 -32 -23 32 -20 100 5 132 40 50 84 63 227 65 89 1 92 0 92 -21z"/>
<path d="M6948 5419 c-71 -17 -156 -86 -174 -141 -7 -22 -7 -22 -15 -3 -4 11 -8 46 -8 77 l-1 57 -121 3 c-66 2 -123 1 -125 -1 -2 -2 -4 -226 -4 -498 l0 -493 130 0 130 0 0 258 c0 200 3 270 15 309 35 119 118 178 263 190 l82 6 0 123 0 124 -67 -1 c-38 -1 -85 -5 -105 -10z"/>
</g>
</svg>
